<?xml version="1.0" encoding="UTF-8" standalone="no"?>
<!-- Created with Inkscape (http://www.inkscape.org/) -->

<svg
   width="16"
   height="16"
   viewBox="0 0 16 16"
   version="1.1"
   id="svg848"
   inkscape:version="1.2.2 (732a01da63, 2022-12-09)"
   sodipodi:docname="SR_FR_percent.svg"
   xml:space="preserve"
   xmlns:inkscape="http://www.inkscape.org/namespaces/inkscape"
   xmlns:sodipodi="http://sodipodi.sourceforge.net/DTD/sodipodi-0.dtd"
   xmlns="http://www.w3.org/2000/svg"
   xmlns:svg="http://www.w3.org/2000/svg"
   xmlns:rdf="http://www.w3.org/1999/02/22-rdf-syntax-ns#"
   xmlns:cc="http://creativecommons.org/ns#"
   xmlns:dc="http://purl.org/dc/elements/1.1/"><title
     id="title4990">Icon</title><sodipodi:namedview
     id="namedview850"
     pagecolor="#ffffff"
     bordercolor="#000000"
     borderopacity="0.25"
     inkscape:showpageshadow="2"
     inkscape:pageopacity="0.0"
     inkscape:pagecheckerboard="0"
     inkscape:deskcolor="#d1d1d1"
     inkscape:document-units="mm"
     showgrid="false"
     inkscape:zoom="22.627417"
     inkscape:cx="0.13258252"
     inkscape:cy="4.9055533"
     inkscape:window-width="1920"
     inkscape:window-height="1009"
     inkscape:window-x="-8"
     inkscape:window-y="-8"
     inkscape:window-maximized="1"
     inkscape:current-layer="layer1"
     shape-rendering="auto" /><defs
     id="defs845" /><g
     inkscape:label="Слой 1"
     inkscape:groupmode="layer"
     id="layer1"><g
       id="g17401"><path
         style="fill:#8ca4f2;stroke-width:0.25"
         d="M 1.5,15.25 V 14.5 H 0.75 0 V 8 1.5 H 0.75 1.5 V 0.75 0 H 4.75 8 V 5.875 11.75 H 6.875 5.75 V 11 10.25 H 5 4.25 v 1.5 1.5 H 5 5.75 V 14 14.75 H 6.875 8 V 15.375 16 H 4.75 1.5 Z M 6,3.75 V 1.5 H 3.75 1.5 V 3.75 6 H 3.75 6 Z"
         id="path17403" /></g><g
       id="g295"
       transform="translate(8)"><path
         style="fill:#428a43;stroke-width:0.25;fill-opacity:1"
         d="M 1.5,15.25 V 14.5 H 0.75 0 V 8 1.5 H 0.75 1.5 V 0.75 0 H 4.75 8 V 5.875 11.75 H 6.875 5.75 V 11 10.25 H 5 4.25 v 1.5 1.5 H 5 5.75 V 14 14.75 H 6.875 8 V 15.375 16 H 4.75 1.5 Z M 6,3.75 V 1.5 H 3.75 1.5 V 3.75 6 H 3.75 6 Z"
         id="path293" /></g><g
       aria-label="%"
       id="text293"
       style="font-size:9.14286px;font-family:'Public Pixel';-inkscape-font-specification:'Public Pixel';fill:#ffffff;stroke-width:0;stroke-linecap:round;stroke-linejoin:round;stroke-dashoffset:28.7769"
       transform="matrix(1.9999997,0,0,1.9999993,-15.999997,-15.999989)"><path
         d="M 10.285715,14.857142 V 16 H 8 v -1.142858 h 1.1428576 v -1.142857 h 1.1428574 v -1.142858 h 1.142858 V 11.42857 h 1.142857 v -1.142858 h 1.142858 V 9.1428547 h 1.142857 V 7.9999971 h 1.142858 v 2.2857149 h -1.142858 v 1.142858 h -1.142857 v 1.142857 H 12.57143 v 1.142858 h -1.142857 v 1.142857 z M 9.1428576,10.285712 H 8 V 9.1428547 H 9.1428576 Z M 14.857145,16 h -1.142857 v -1.142858 h 1.142857 z M 13.714288,14.857142 H 12.57143 v -1.142857 h 1.142858 z m 2.285715,0 h -1.142858 v -1.142857 h 1.142858 z m -1.142858,-1.142857 h -1.142857 v -1.142858 h 1.142857 z M 10.285715,11.42857 H 9.1428576 v -1.142858 h 1.1428574 z m 1.142858,-1.142858 H 10.285715 V 9.1428547 h 1.142858 z M 10.285715,9.1428547 H 9.1428576 V 7.9999971 h 1.1428574 z"
         id="path1317" /></g></g><metadata
     id="metadata5846"><rdf:RDF><cc:Work
         rdf:about=""><dc:title>Icon</dc:title></cc:Work></rdf:RDF></metadata></svg>
