<?xml version="1.0" encoding="UTF-8" standalone="no"?>
<!-- Created with Inkscape (http://www.inkscape.org/) -->

<svg
   width="16"
   height="16"
   viewBox="0 0 16 16"
   version="1.1"
   id="svg848"
   inkscape:version="1.2.2 (732a01da63, 2022-12-09)"
   sodipodi:docname="SR_rotation_random.svg"
   xml:space="preserve"
   xmlns:inkscape="http://www.inkscape.org/namespaces/inkscape"
   xmlns:sodipodi="http://sodipodi.sourceforge.net/DTD/sodipodi-0.dtd"
   xmlns="http://www.w3.org/2000/svg"
   xmlns:svg="http://www.w3.org/2000/svg"
   xmlns:rdf="http://www.w3.org/1999/02/22-rdf-syntax-ns#"
   xmlns:cc="http://creativecommons.org/ns#"
   xmlns:dc="http://purl.org/dc/elements/1.1/"><title
     id="title4990">Icon</title><sodipodi:namedview
     id="namedview850"
     pagecolor="#ffffff"
     bordercolor="#000000"
     borderopacity="0.25"
     inkscape:showpageshadow="2"
     inkscape:pageopacity="0.0"
     inkscape:pagecheckerboard="0"
     inkscape:deskcolor="#d1d1d1"
     inkscape:document-units="mm"
     showgrid="false"
     inkscape:zoom="12.215376"
     inkscape:cx="4.379726"
     inkscape:cy="3.3564255"
     inkscape:window-width="1920"
     inkscape:window-height="1009"
     inkscape:window-x="-8"
     inkscape:window-y="-8"
     inkscape:window-maximized="1"
     inkscape:current-layer="layer1"
     shape-rendering="auto" /><defs
     id="defs845" /><g
     inkscape:label="Слой 1"
     inkscape:groupmode="layer"
     id="layer1"><g
       id="g17401"
       transform="rotate(180,8,8)"><path
         style="fill:#8ca4f2;stroke-width:0.25"
         d="M 1.5,15.25 V 14.5 H 0.75 0 V 8 1.5 H 0.75 1.5 V 0.75 0 H 4.75 8 V 5.875 11.75 H 6.875 5.75 V 11 10.25 H 5 4.25 v 1.5 1.5 H 5 5.75 V 14 14.75 H 6.875 8 V 15.375 16 H 4.75 1.5 Z M 6,3.75 V 1.5 H 3.75 1.5 V 3.75 6 H 3.75 6 Z"
         id="path17403" /></g><g
       id="g17365"
       transform="rotate(180,8,8)"><path
         style="display:inline;fill:#fb7e7e;stroke-width:0.25"
         d="M 7.9999995,15.375 V 14.75 h 1.125 H 10.25 V 14 13.25 H 11 11.75 v -1.5 -1.5 H 11 10.25 V 11 11.75 h -1.1250005 -1.125 V 5.875 0 H 11.25 14.5 V 0.75 1.5 H 15.25 16 V 8 14.5 H 15.25 14.5 V 15.25 16 H 11.25 7.9999995 Z M 14.5,3.75 V 1.5 H 12.25 9.9999995 V 3.75 6 H 12.25 14.5 Z"
         id="path17367" /></g></g><metadata
     id="metadata5846"><rdf:RDF><cc:Work
         rdf:about=""><dc:title>Icon</dc:title></cc:Work></rdf:RDF></metadata></svg>
