<?xml version="1.0" encoding="UTF-8" standalone="no"?>
<!-- Created with Inkscape (http://www.inkscape.org/) -->

<svg
   width="16"
   height="16"
   viewBox="0 0 16 16"
   version="1.1"
   id="svg848"
   inkscape:version="1.2.2 (732a01da63, 2022-12-09)"
   sodipodi:docname="SR_texture_random.svg"
   xml:space="preserve"
   xmlns:inkscape="http://www.inkscape.org/namespaces/inkscape"
   xmlns:sodipodi="http://sodipodi.sourceforge.net/DTD/sodipodi-0.dtd"
   xmlns="http://www.w3.org/2000/svg"
   xmlns:svg="http://www.w3.org/2000/svg"
   xmlns:rdf="http://www.w3.org/1999/02/22-rdf-syntax-ns#"
   xmlns:cc="http://creativecommons.org/ns#"
   xmlns:dc="http://purl.org/dc/elements/1.1/"><title
     id="title4990">Icon</title><sodipodi:namedview
     id="namedview850"
     pagecolor="#ffffff"
     bordercolor="#000000"
     borderopacity="0.25"
     inkscape:showpageshadow="2"
     inkscape:pageopacity="0.0"
     inkscape:pagecheckerboard="0"
     inkscape:deskcolor="#d1d1d1"
     inkscape:document-units="mm"
     showgrid="false"
     inkscape:zoom="24.430752"
     inkscape:cx="6.7128511"
     inkscape:cy="7.2449673"
     inkscape:window-width="1920"
     inkscape:window-height="1009"
     inkscape:window-x="-8"
     inkscape:window-y="-8"
     inkscape:window-maximized="1"
     inkscape:current-layer="layer1"
     shape-rendering="auto" /><defs
     id="defs845" /><g
     inkscape:label="Слой 1"
     inkscape:groupmode="layer"
     id="layer1"><g
       id="g5086"
       transform="translate(11.338169,0.81864)"><path
         style="fill:#678cfe;stroke-width:0.25"
         d="m -6.588169,15.18136 h -3.25 v -0.75 -0.75 h -0.75 -0.75 V 7.1813596 0.68135965 h 0.75 0.75 v -0.75 -0.75 h 3.25 3.25 V 5.0563596 10.93136 h -1.875 -1.875 v 0.75 0.75 h 0.75 0.75 v 0.75 0.75 h 1.125 1.125 v 0.625 0.625 z m -1,-10.0000004 h 2.25 V 2.9313597 0.68135965 h -0.75 -0.75 V 1.4313596 2.1813597 h -0.75 -0.75 v 0.75 0.75 h -0.75 -0.75 v 0.7499999 0.75 z"
         id="path5088" /></g><g
       id="g5098"><path
         style="fill:#54fbfe;stroke-width:0.25"
         d="M 11.25,16 H 8 V 15.375 14.75 H 9.125 10.25 V 14 13.25 H 11 11.75 V 12.5 11.75 H 9.875 8 V 5.875 0 h 3.25 3.25 V 0.75 1.5 H 15.25 16 V 8 14.5 H 15.25 14.5 V 15.25 16 Z m 1,-10 H 14.5 V 5.25 4.5 H 13.75 13 V 3.75 3 H 12.25 11.5 V 2.25 1.5 H 10.75 10 V 3.75 6 Z"
         id="path5100" /></g></g><metadata
     id="metadata5846"><rdf:RDF><cc:Work
         rdf:about=""><dc:title>Icon</dc:title></cc:Work></rdf:RDF></metadata></svg>
